<?xml version="1.0" encoding="UTF-8" standalone="no"?>
<svg width="297mm" height="210mm" viewBox="0 0 297 210" version="1.1" id="svg5" xmlns="http://www.w3.org/2000/svg" xmlns:svg="http://www.w3.org/2000/svg">
<g id="checkers">
<rect width="28" height="28" x="8.5" y="7"></rect>
<rect width="28" height="28" x="64.5" y="7"></rect>
<rect width="28" height="28" x="120.5" y="7"></rect>
<rect width="28" height="28" x="176.5" y="7"></rect>
<rect width="28" height="28" x="232.5" y="7"></rect>
<rect width="28" height="28" x="36.5" y="35"></rect>
<rect width="28" height="28" x="92.5" y="35"></rect>
<rect width="28" height="28" x="148.5" y="35"></rect>
<rect width="28" height="28" x="204.5" y="35"></rect>
<rect width="28" height="28" x="260.5" y="35"></rect>
<rect width="28" height="28" x="8.5" y="63"></rect>
<rect width="28" height="28" x="64.5" y="63"></rect>
<rect width="28" height="28" x="120.5" y="63"></rect>
<rect width="28" height="28" x="176.5" y="63"></rect>
<rect width="28" height="28" x="232.5" y="63"></rect>
<rect width="28" height="28" x="36.5" y="91"></rect>
<rect width="28" height="28" x="92.5" y="91"></rect>
<rect width="28" height="28" x="148.5" y="91"></rect>
<rect width="28" height="28" x="204.5" y="91"></rect>
<rect width="28" height="28" x="260.5" y="91"></rect>
<rect width="28" height="28" x="8.5" y="119"></rect>
<rect width="28" height="28" x="64.5" y="119"></rect>
<rect width="28" height="28" x="120.5" y="119"></rect>
<rect width="28" height="28" x="176.5" y="119"></rect>
<rect width="28" height="28" x="232.5" y="119"></rect>
<rect width="28" height="28" x="36.5" y="147"></rect>
<rect width="28" height="28" x="92.5" y="147"></rect>
<rect width="28" height="28" x="148.5" y="147"></rect>
<rect width="28" height="28" x="204.5" y="147"></rect>
<rect width="28" height="28" x="260.5" y="147"></rect>
<rect width="28" height="28" x="8.5" y="175"></rect>
<rect width="28" height="28" x="64.5" y="175"></rect>
<rect width="28" height="28" x="120.5" y="175"></rect>
<rect width="28" height="28" x="176.5" y="175"></rect>
<rect width="28" height="28" x="232.5" y="175"></rect>

</g>
</svg>
